<!DOCTYPE svg PUBLIC "-//W3C//DTD SVG 20010904//EN" "http://www.w3.org/TR/2001/REC-SVG-20010904/DTD/svg10.dtd">
<svg version="1.0" xmlns="http://www.w3.org/2000/svg" width="1252px" height="1252px" viewBox="0 0 12520 12520" preserveAspectRatio="xMidYMid meet">
<g id="layer101" fill="#010101" stroke="none">
 <path d="M8775 10523 c-218 -14 -512 -59 -690 -105 -290 -74 -658 -264 -934 -482 -46 -36 -86 -65 -87 -63 -2 2 26 92 62 201 62 188 65 199 49 222 -10 16 -25 24 -43 24 -37 0 -348 -53 -500 -85 -260 -55 -545 -185 -1102 -504 -553 -317 -836 -440 -1259 -547 -96 -24 -185 -51 -197 -59 -42 -27 -75 -69 -114 -147 -46 -93 -63 -168 -58 -259 4 -82 29 -121 170 -275 70 -76 103 -122 135 -187 154 -313 362 -967 428 -1347 20 -113 23 -303 6 -382 -12 -56 -12 -56 -79 -91 -37 -19 -125 -61 -197 -92 -71 -32 -156 -73 -187 -91 -179 -108 -323 -391 -563 -1105 -134 -398 -167 -463 -301 -589 -166 -157 -350 -230 -572 -230 -142 1 -223 43 -627 334 -567 407 -642 442 -796 369 -162 -76 -460 -352 -585 -540 -66 -99 -120 -297 -126 -462 -2 -52 1 -66 16 -77 42 -30 174 -78 226 -81 54 -4 56 -3 115 48 213 186 401 213 641 95 50 -25 162 -96 250 -157 404 -285 552 -372 740 -433 258 -85 641 -106 911 -50 247 50 448 163 616 344 158 170 255 359 430 831 69 186 119 303 133 312 5 3 21 3 37 0 27 -5 27 -6 27 -87 0 -173 42 -364 124 -568 106 -266 217 -450 409 -678 416 -497 977 -855 1508 -962 149 -30 440 -32 624 -4 225 34 479 106 695 198 247 105 526 265 722 415 59 45 78 52 78 29 0 -27 113 -351 169 -486 109 -262 218 -426 320 -484 48 -26 64 -30 126 -29 160 3 287 56 395 164 79 80 130 167 227 392 41 95 88 196 105 225 l30 53 18 -29 c24 -39 88 -63 187 -69 133 -9 164 16 198 159 37 159 7 354 -69 436 -88 98 -322 108 -509 24 -179 -82 -305 -201 -342 -325 -7 -25 -19 -43 -29 -45 -16 -3 -17 5 -14 85 2 48 21 169 41 268 32 155 48 205 112 360 40 99 85 215 99 258 48 146 59 339 26 462 -10 39 -17 70 -16 70 0 0 35 17 76 37 121 61 374 265 386 312 6 25 -52 265 -98 406 -42 127 -123 320 -219 519 -43 90 -79 173 -79 185 0 42 52 212 114 375 75 194 91 282 84 452 -4 107 -5 109 -60 221 -131 267 -127 425 24 1033 27 110 69 286 94 390 38 162 53 208 103 310 60 125 162 285 303 478 115 157 148 214 148 256 0 42 -7 54 -37 70 -30 15 -192 14 -398 -4 -93 -8 -201 -15 -240 -15 l-70 0 -38 95 c-121 296 -307 514 -549 645 -111 59 -181 70 -468 68 -129 -1 -257 -3 -285 -5z"/>
 </g>
<g id="layer102" fill="#ffffff" stroke="none">
 <path d="M8965 10349 c-503 -25 -949 -138 -1230 -311 -91 -56 -738 -463 -850 -535 -56 -36 -63 -45 -112 -143 -120 -243 -181 -529 -163 -766 18 -226 75 -380 184 -488 62 -63 172 -149 284 -225 88 -59 87 -76 -16 -235 -178 -274 -276 -464 -293 -566 -17 -104 -5 -236 39 -410 51 -201 78 -253 185 -357 96 -94 157 -127 259 -142 107 -15 200 0 643 106 270 64 310 66 394 23 72 -36 80 -36 115 -9 20 16 36 54 76 177 109 343 191 665 247 969 27 145 27 155 27 533 0 372 -14 682 -49 1140 -8 102 -15 193 -15 203 0 11 23 -10 62 -55 136 -158 262 -269 352 -309 61 -27 121 -21 213 21 85 39 149 86 257 190 50 48 86 76 83 65 -22 -75 -188 -1046 -243 -1415 -37 -250 -58 -580 -37 -580 5 0 81 -7 169 -16 121 -11 192 -25 297 -55 139 -39 197 -48 197 -29 0 6 -19 56 -41 113 -72 178 -87 221 -94 279 l-7 57 -29 -14 c-34 -18 -106 -19 -138 -1 -60 33 -104 154 -87 238 8 41 67 112 106 128 44 18 73 2 118 -69 l39 -59 16 88 c10 48 32 134 50 192 33 104 33 105 13 114 -40 18 -61 80 -61 184 0 83 3 101 25 139 38 66 54 74 117 52 l52 -18 10 46 c38 182 39 390 1 570 -22 109 -35 129 -44 73 -11 -74 -88 -113 -154 -78 -35 18 -85 72 -106 113 -33 66 -9 213 41 252 36 29 65 26 116 -13 l45 -34 -33 71 c-46 102 -127 247 -195 347 -132 196 -375 483 -365 430 10 -51 25 -336 25 -463 -1 -157 -13 -265 -36 -309 -24 -47 -88 -121 -151 -175 l-54 -46 -75 74 c-42 41 -95 100 -120 132 -41 55 -44 63 -44 119 0 117 75 402 160 609 17 40 30 76 30 80 0 5 -12 8 -27 7 -16 0 -95 -4 -178 -9z m-420 -608 c52 -23 122 -103 136 -154 24 -90 -26 -234 -112 -316 -97 -95 -178 -95 -263 0 -61 66 -99 158 -99 238 -1 76 14 112 70 167 76 77 185 103 268 65z m-1088 -422 c49 -24 103 -84 132 -150 24 -53 28 -157 7 -197 -36 -69 -123 -113 -222 -113 -81 0 -154 36 -199 100 -27 38 -30 51 -30 114 0 85 20 132 80 192 76 76 151 93 232 54z m580 -610 c27 -13 55 -38 75 -66 37 -54 77 -164 78 -211 0 -99 -118 -221 -216 -222 -56 0 -179 92 -214 160 -59 117 -9 271 110 332 63 33 109 35 167 7z m-414 -633 c119 -49 193 -244 135 -356 -40 -79 -119 -113 -204 -90 -173 49 -254 289 -137 406 51 51 139 68 206 40z m834 -102 c124 -60 167 -193 99 -309 -42 -70 -88 -100 -157 -100 -48 0 -64 5 -100 30 -109 77 -164 303 -90 369 56 51 155 55 248 10z m-11 -693 c27 -7 29 -10 32 -67 l3 -59 -36 -3 c-53 -3 -75 -18 -97 -68 -16 -37 -17 -50 -8 -78 18 -55 43 -70 124 -76 l71 -5 5 -58 5 -58 -30 8 c-16 3 -105 6 -197 5 -160 -1 -408 -23 -892 -78 -156 -17 -223 -21 -230 -14 -7 7 -11 79 -11 198 l0 187 37 79 c31 64 41 77 55 71 109 -43 326 -43 618 -1 94 14 188 27 210 30 56 6 305 -3 341 -13z"/>
 <path d="M6729 10070 c-293 -69 -443 -134 -1034 -453 -695 -374 -1113 -546 -1470 -602 -55 -9 -106 -22 -113 -28 -23 -24 -52 -126 -52 -187 0 -98 44 -178 124 -225 l43 -25 154 74 c85 40 311 149 504 241 385 185 509 236 713 295 173 50 281 75 457 105 192 34 179 38 148 -42 -79 -205 -133 -445 -133 -593 0 -145 43 -307 124 -469 50 -98 149 -235 202 -279 l35 -29 -44 -64 c-52 -75 -126 -219 -159 -310 -23 -63 -23 -69 -24 -559 -1 -272 -5 -513 -10 -535 l-9 -40 -60 -6 c-33 -4 -109 -7 -170 -8 l-110 -1 -2 -193 c-2 -304 -29 -434 -126 -602 -60 -105 -182 -222 -284 -272 -44 -23 -100 -44 -122 -48 -23 -4 -41 -10 -41 -14 0 -19 67 -106 121 -156 154 -142 313 -217 554 -261 123 -22 524 -30 737 -15 289 21 624 68 948 132 148 30 158 33 226 80 77 54 225 174 342 277 52 46 72 71 72 89 0 42 -27 91 -60 108 -31 16 -37 15 -144 -14 -61 -17 -176 -46 -256 -65 -80 -19 -210 -56 -290 -81 -389 -124 -651 -163 -914 -135 -135 13 -209 34 -346 94 -88 40 -344 177 -364 196 -5 5 49 -12 119 -36 360 -125 715 -178 979 -145 114 15 974 226 992 244 8 8 215 470 211 473 -1 2 -32 -6 -67 -17 -365 -114 -897 -197 -1095 -171 -264 35 -410 263 -440 687 -13 183 25 483 87 680 33 105 171 388 275 561 l60 101 -106 69 c-58 38 -137 101 -177 139 -61 60 -80 87 -127 185 -87 178 -102 249 -101 460 1 189 13 269 75 495 49 176 199 536 350 837 27 54 49 100 49 103 0 11 -52 2 -251 -45z"/>
 <path d="M10366 9574 c-121 -8 -221 -15 -223 -17 -2 -2 6 -29 16 -59 34 -98 63 -229 75 -335 l11 -104 40 73 c62 115 166 265 255 366 55 62 76 92 63 91 -10 -1 -117 -8 -237 -15z"/>
 <path d="M6000 9170 c-133 -25 -351 -83 -508 -136 -277 -94 -749 -306 -1089 -490 l-81 -45 48 -103 c69 -146 171 -393 229 -554 96 -267 178 -615 237 -1002 14 -96 27 -176 29 -178 1 -1 28 13 59 32 81 49 167 76 261 82 179 13 323 -56 570 -275 l80 -71 136 0 c133 0 137 1 144 23 17 52 17 369 0 560 -14 162 -15 210 -5 293 20 166 73 348 141 485 l28 56 -44 58 c-104 139 -191 315 -236 475 -31 111 -33 320 -6 450 20 92 81 288 103 333 8 15 11 27 7 26 -5 0 -51 -9 -103 -19z"/>
 <path d="M8800 9029 c0 -13 7 -150 15 -304 8 -154 18 -453 22 -665 6 -398 -2 -571 -34 -730 -17 -87 -100 -390 -184 -673 -46 -156 -99 -369 -99 -400 0 -2 105 -7 233 -10 223 -5 382 -23 495 -56 l34 -10 -6 37 c-33 211 -35 556 -7 867 66 708 132 1195 233 1707 35 178 40 215 27 205 -219 -163 -327 -209 -422 -178 -57 19 -149 84 -231 162 -66 62 -76 68 -76 48z m406 -629 c113 -64 166 -181 132 -292 -24 -80 -141 -178 -213 -178 -68 0 -152 65 -196 151 -25 50 -27 140 -4 196 33 78 130 152 200 153 17 0 53 -13 81 -30z m-36 -888 c73 -73 93 -236 40 -316 -82 -122 -279 -90 -320 53 -18 62 -23 136 -11 173 23 71 111 127 200 128 49 0 57 -3 91 -38z m-140 -753 c115 -52 155 -151 115 -285 -23 -78 -105 -144 -180 -144 -106 0 -210 104 -222 223 -9 88 28 163 102 208 41 26 127 25 185 -2z"/>
 <path d="M9085 8348 c-32 -17 -76 -61 -91 -90 -33 -64 -7 -168 56 -222 59 -49 95 -46 165 16 69 60 82 131 39 205 -28 49 -96 103 -128 103 -12 0 -30 -6 -41 -12z"/>
 <path d="M9004 7461 c-65 -40 -77 -84 -48 -180 11 -39 23 -57 47 -71 35 -22 87 -26 118 -10 62 34 64 193 3 261 -22 25 -79 25 -120 0z"/>
 <path d="M8866 6689 c-57 -44 -70 -112 -37 -184 28 -60 72 -96 124 -102 39 -5 48 -1 80 27 63 55 77 164 30 221 -50 60 -146 78 -197 38z"/>
 <path d="M9348 6813 c-22 -6 -33 -167 -25 -358 5 -114 26 -247 41 -262 2 -2 19 4 39 12 54 22 70 19 155 -30 139 -81 263 -111 333 -82 l36 15 6 113 c7 143 42 283 96 386 29 56 37 79 28 85 -38 23 -342 90 -511 113 -115 15 -165 17 -198 8z"/>
 <path d="M5055 6655 c-22 -9 -69 -29 -106 -46 l-66 -31 -7 -51 c-11 -98 -14 -94 60 -106 111 -20 170 -47 231 -108 103 -103 150 -249 133 -404 -14 -122 -29 -173 -76 -261 -82 -154 -104 -207 -111 -268 l-6 -60 79 0 c138 0 228 34 315 116 165 158 264 461 238 730 -22 219 -140 361 -387 465 -64 27 -92 33 -167 36 -63 2 -102 -2 -130 -12z"/>
 <path d="M6722 6453 c18 -195 54 -340 101 -410 39 -58 126 -106 232 -128 151 -32 445 -15 719 41 132 27 421 100 441 112 7 4 38 35 69 69 l57 62 -52 27 c-66 33 -71 32 -400 -50 -313 -79 -483 -109 -615 -110 -97 -1 -103 0 -177 37 -48 24 -103 62 -143 99 -68 64 -162 196 -203 286 -14 28 -27 52 -31 52 -3 0 -2 -39 2 -87z"/>
 <path d="M4766 6308 c-36 -28 -66 -54 -66 -59 0 -4 20 -31 44 -59 61 -72 77 -110 83 -199 6 -97 -15 -191 -64 -282 l-36 -66 102 -147 c57 -80 107 -148 111 -151 13 -8 151 272 188 380 47 138 58 211 44 301 -15 98 -40 152 -91 202 -44 42 -152 104 -213 120 -35 10 -40 8 -102 -40z"/>
 <path d="M4535 6182 c-127 -52 -295 -174 -295 -214 0 -5 36 -47 80 -94 94 -100 124 -143 140 -202 15 -57 6 -93 -36 -144 -28 -32 -34 -47 -29 -67 16 -62 138 -191 218 -230 l43 -21 113 42 c70 26 110 46 107 53 -2 7 -61 92 -131 189 -78 109 -123 181 -119 189 4 6 28 38 52 70 103 136 109 256 18 406 -23 37 -44 61 -54 60 -9 0 -58 -17 -107 -37z"/>
 <path d="M8410 6129 c-161 -212 -200 -278 -282 -478 -40 -100 -45 -116 -27 -106 68 43 572 168 611 152 7 -2 56 -88 108 -191 52 -102 98 -186 101 -186 3 0 63 81 134 180 71 99 129 180 130 180 1 0 74 -56 161 -125 87 -68 162 -125 165 -125 4 0 17 28 30 63 41 106 24 195 -64 354 -51 91 -159 237 -190 258 -38 24 -201 62 -322 74 -60 6 -198 13 -305 16 l-195 6 -55 -72z m549 -35 c122 -36 200 -167 160 -271 -24 -63 -109 -122 -177 -123 -95 0 -194 111 -194 218 1 80 40 153 96 178 40 17 52 17 115 -2z"/>
 <path d="M8867 6029 c-51 -30 -63 -131 -22 -192 53 -77 128 -86 185 -20 28 32 32 41 27 80 -6 52 -42 96 -102 124 -45 21 -63 23 -88 8z"/>
 <path d="M9425 6150 c-11 -4 -27 -17 -37 -28 -15 -18 -15 -22 -1 -44 9 -12 34 -42 57 -65 33 -36 47 -43 77 -43 49 0 237 -49 364 -94 55 -20 106 -36 114 -36 17 0 11 44 -18 122 l-22 56 -78 -5 c-103 -7 -185 17 -309 92 -92 55 -110 61 -147 45z"/>
 <path d="M4138 5874 c-63 -64 -92 -127 -133 -288 -19 -76 -46 -158 -60 -181 -14 -24 -25 -51 -25 -61 0 -25 49 -116 123 -231 87 -134 107 -175 107 -216 0 -39 -20 -91 -55 -147 l-24 -38 52 -40 c60 -46 138 -86 184 -97 47 -10 74 23 107 126 15 46 57 145 92 219 75 157 86 201 58 232 -11 11 -63 49 -116 84 -152 98 -218 167 -218 226 0 16 24 45 76 95 77 71 77 71 71 114 -3 27 -22 66 -52 110 -44 65 -116 139 -134 139 -4 0 -28 -21 -53 -46z"/>
 <path d="M9574 5819 c54 -118 66 -163 66 -249 l0 -80 53 -41 c135 -109 337 -223 502 -285 l50 -19 -73 -3 c-46 -2 -95 3 -130 13 -64 19 -200 92 -347 189 l-100 66 -19 -45 c-20 -49 -33 -54 -71 -29 -24 16 -25 15 -41 -19 l-17 -35 79 -109 c142 -196 304 -343 376 -343 67 0 207 82 314 183 l68 64 -18 79 c-31 134 -102 339 -150 431 -59 114 -110 167 -202 210 -70 32 -227 75 -326 89 l-48 6 34 -73z"/>
 <path d="M8473 5567 c-95 -34 -173 -65 -173 -69 0 -4 13 -28 29 -53 42 -67 47 -111 20 -174 -27 -63 -77 -110 -252 -233 -73 -51 -162 -122 -198 -158 -59 -59 -67 -72 -88 -142 -31 -107 -44 -201 -36 -278 6 -66 24 -140 34 -140 3 0 55 14 116 31 196 55 219 70 401 256 181 185 182 185 224 99 21 -43 21 -47 5 -81 -18 -37 -104 -121 -167 -163 l-38 -25 0 -238 c0 -132 2 -239 5 -239 16 0 108 54 168 98 73 53 317 270 317 280 0 4 -5 27 -11 52 -6 25 -10 67 -11 94 0 58 17 76 72 76 54 0 77 -22 90 -86 12 -55 7 -83 -24 -154 -4 -10 27 -59 92 -145 54 -72 116 -165 137 -207 22 -43 43 -78 46 -78 11 0 117 234 139 305 11 39 24 97 27 130 7 75 -7 105 -106 230 -71 90 -82 117 -48 123 34 7 200 -116 240 -179 9 -14 21 -50 27 -80 6 -30 15 -66 21 -81 9 -21 150 -138 246 -203 19 -13 46 19 85 101 56 118 48 253 -22 400 -46 96 -87 150 -233 305 -125 134 -185 211 -221 285 -36 74 -34 94 17 142 l44 40 -113 81 c-62 44 -116 81 -121 81 -4 0 -21 -24 -37 -53 -58 -104 -176 -285 -215 -328 -38 -43 -39 -44 -59 -25 -27 23 -90 144 -168 321 -34 77 -68 141 -75 142 -8 1 -92 -26 -186 -60z"/>
 <path d="M3872 5211 c-16 -10 -81 -154 -132 -291 -36 -100 -41 -123 -38 -177 4 -58 9 -70 64 -150 78 -114 88 -140 80 -208 -3 -30 -9 -80 -12 -110 -8 -66 8 -95 64 -124 37 -19 165 -51 199 -51 34 1 181 222 209 317 19 62 5 83 -72 107 -86 26 -182 83 -204 119 -36 59 -35 78 14 175 l46 91 -30 70 c-52 122 -106 203 -150 226 -14 7 -31 10 -38 6z"/>
 <path d="M4965 5182 c-4 -9 -9 -60 -12 -113 -22 -385 195 -931 557 -1399 99 -128 362 -388 486 -481 204 -153 405 -261 626 -338 163 -56 256 -72 449 -78 404 -13 820 82 1208 276 261 131 550 343 656 481 54 71 173 265 181 297 5 20 -46 93 -253 362 -1 2 -58 -49 -125 -115 -164 -158 -312 -255 -455 -297 -52 -16 -53 -15 -65 6 -10 16 -13 94 -13 293 l0 272 -78 -39 c-115 -58 -249 -100 -339 -106 l-76 -6 -11 39 c-36 140 -39 230 -11 424 10 74 18 136 17 137 -1 1 -79 -14 -172 -32 -416 -83 -988 -145 -1351 -146 -114 0 -176 5 -252 21 -300 61 -607 229 -873 479 -72 67 -88 78 -94 63z"/>
 <path d="M1345 4795 c-98 -62 -180 -128 -196 -157 -9 -17 1 -32 78 -111 84 -87 113 -136 113 -189 0 -11 16 -17 58 -21 34 -3 83 -18 122 -36 126 -60 190 -34 190 76 0 52 -3 57 -51 108 l-52 55 1 77 c0 45 7 96 16 122 9 24 16 50 16 58 0 20 -122 73 -168 73 -30 0 -60 -13 -127 -55z"/>
 <path d="M1683 4633 l-11 -88 30 -34 c61 -69 84 -164 57 -225 -6 -13 -31 -39 -56 -56 l-44 -32 23 -25 c70 -77 302 -100 338 -34 5 10 13 45 19 79 22 137 -35 307 -128 380 -40 32 -198 122 -213 122 -3 0 -10 -39 -15 -87z"/>
 <path d="M3602 4622 c-27 -25 -32 -37 -32 -75 0 -59 -36 -108 -139 -186 -67 -51 -82 -68 -91 -102 -26 -94 24 -193 172 -341 155 -156 288 -200 396 -131 46 30 128 148 138 198 11 62 5 69 -66 76 -132 12 -196 43 -229 111 -26 55 -26 83 -1 133 42 83 12 205 -76 304 l-39 43 -33 -30z"/>
 <path d="M1017 4510 c-109 -98 -145 -141 -224 -272 l-62 -103 27 -29 c30 -32 79 -56 115 -56 37 0 70 33 91 89 22 63 42 77 143 103 89 22 173 66 172 88 -2 46 -40 117 -99 184 -36 41 -67 75 -70 75 -3 0 -45 -35 -93 -79z"/>
 <path d="M2054 4443 c27 -188 25 -288 -8 -338 -16 -24 -22 -26 -72 -23 -50 3 -53 2 -48 -17 18 -56 39 -77 127 -128 110 -65 312 -177 318 -177 2 0 4 44 4 97 0 106 9 135 60 185 15 15 49 34 77 44 61 20 49 34 -32 34 -68 -1 -131 -14 -190 -40 -41 -19 -49 -19 -90 -7 -30 9 -44 19 -41 28 2 8 6 34 9 58 l5 43 64 -6 c35 -4 75 -11 90 -17 34 -13 45 3 39 55 -3 26 -15 49 -38 73 -49 51 -247 183 -274 183 -4 0 -4 -21 0 -47z"/>
 <path d="M3250 4256 c-30 -13 -91 -40 -135 -61 -44 -21 -114 -50 -155 -64 -65 -24 -78 -32 -97 -67 -12 -21 -25 -61 -28 -89 -6 -44 -2 -58 29 -118 30 -58 36 -78 36 -132 0 -57 3 -68 30 -98 16 -19 58 -47 92 -62 116 -52 327 -45 458 16 65 30 190 107 190 116 0 3 -17 3 -38 -1 -120 -19 -276 50 -353 158 -40 55 -37 78 16 130 l46 43 -20 34 c-11 19 -25 55 -31 81 -11 42 -10 52 9 87 11 22 17 42 13 45 -4 3 -32 -6 -62 -18z"/>
 <path d="M9475 4188 c-11 -58 -57 -191 -83 -243 -13 -27 -47 -85 -75 -128 -45 -71 -52 -78 -76 -72 -23 5 -31 -2 -76 -71 -63 -97 -62 -94 -24 -94 57 0 107 -22 161 -70 l53 -47 117 45 117 45 28 111 c24 98 28 130 28 270 l0 158 -36 32 c-20 17 -57 46 -82 64 l-45 32 -7 -32z"/>
 <path d="M2653 4099 c-81 -14 -160 -47 -187 -80 -37 -44 -59 -130 -53 -204 7 -98 17 -110 142 -167 161 -73 202 -88 277 -103 l67 -12 -60 69 c-33 39 -68 85 -76 104 -15 31 -15 35 1 53 10 11 30 23 45 26 l28 6 -21 57 c-19 54 -27 183 -15 237 4 18 -2 20 -46 22 -27 0 -73 -3 -102 -8z"/>
 <path d="M3338 3973 c-53 -61 -39 -112 44 -167 70 -47 146 -73 238 -82 l75 -7 -92 62 c-53 35 -121 93 -161 136 -38 41 -73 75 -79 75 -5 0 -17 -8 -25 -17z"/>
 <path d="M9076 3482 c-14 -23 -26 -110 -20 -148 6 -41 7 -43 35 -37 45 9 75 -4 133 -56 65 -59 94 -67 177 -47 124 29 132 35 157 120 12 42 22 96 22 120 l0 45 -106 -45 c-58 -24 -110 -44 -115 -44 -5 0 -27 18 -48 39 -22 22 -57 44 -78 50 -45 13 -150 14 -157 3z"/>
 <path d="M10280 3464 c-102 -32 -194 -85 -198 -113 -5 -33 17 -89 50 -127 l30 -34 66 54 c116 93 195 124 232 91 31 -28 26 -83 -16 -161 -34 -64 -35 -69 -18 -81 31 -23 95 -36 128 -26 41 12 59 51 64 144 4 67 1 83 -23 138 -17 36 -45 77 -71 101 -42 38 -47 40 -106 39 -37 0 -94 -11 -138 -25z"/>
 <path d="M9995 3272 c-49 -69 -90 -139 -99 -170 -6 -18 1 -32 35 -70 23 -26 55 -74 70 -107 16 -33 29 -52 29 -43 0 36 51 176 84 230 31 53 33 58 15 63 -30 10 -69 64 -75 106 -4 22 -10 41 -13 43 -4 3 -24 -21 -46 -52z"/>
 <path d="M9116 3143 c79 -228 64 -204 152 -241 43 -18 115 -61 162 -96 l85 -65 40 37 c22 20 61 56 86 80 l47 44 -24 41 c-13 23 -40 90 -60 149 l-36 108 -36 -16 c-69 -29 -87 -35 -148 -50 -76 -17 -110 -8 -144 43 -31 45 -104 93 -142 93 l-27 0 45 -127z"/>
 <path d="M9801 2977 c-22 -41 -41 -81 -41 -88 0 -8 11 -49 25 -92 28 -88 31 -165 11 -269 l-13 -67 39 20 c46 24 90 88 144 212 36 85 37 90 25 135 -15 59 -64 142 -112 188 l-37 36 -41 -75z"/>
 <path d="M9635 2764 c-49 -55 -90 -100 -91 -102 -1 -1 -59 29 -130 68 -84 45 -140 70 -161 70 -18 0 -33 -4 -33 -9 0 -22 83 -199 125 -266 76 -123 151 -174 238 -162 51 7 83 31 124 90 45 67 57 135 43 249 -6 51 -14 108 -18 127 l-7 33 -90 -98z"/>
 </g>

</svg>